####
#
# OBJ File Generated by Meshlab
#
####
# Object cbox-rescaled-centered.obj
#
# Vertices: 24
# Faces: 12
#
####
vn -0.000020 1.000000 0.000021
v -0.095931 0.092815 -0.001262
vn -0.000040 1.000000 0.000042
v -0.091634 0.092808 0.186613
vn -0.000020 1.000000 0.000021
v 0.093769 0.092815 0.181965
vn 0.000000 1.000000 0.000000
v 0.092332 0.092815 -0.004465
vn 0.999971 -0.000039 -0.007666
v 0.092332 -0.092815 -0.004465
vn 0.999970 0.000000 -0.007705
v 0.092332 0.092815 -0.004465
vn 0.999971 -0.000039 -0.007666
v 0.093769 0.092815 0.181965
vn 0.999971 -0.000078 -0.007627
v 0.093754 -0.092815 0.181970
vn -0.017000 0.000012 -0.999856
v -0.095916 -0.092777 -0.001267
vn -0.017012 0.000024 -0.999855
v -0.095931 0.092815 -0.001262
vn -0.017000 0.000012 -0.999856
v 0.092332 0.092815 -0.004465
vn -0.016988 0.000000 -0.999856
v 0.092332 -0.092815 -0.004465
vn -0.999739 -0.000079 0.022864
v -0.091620 -0.092808 0.186608
vn -0.999739 -0.000079 0.022864
v -0.091634 0.092808 0.186613
vn -0.999739 -0.000079 0.022864
v -0.095931 0.092815 -0.001262
vn -0.999739 -0.000079 0.022864
v -0.095916 -0.092777 -0.001267
vn 0.025041 -0.000000 0.999686
v 0.093754 -0.092815 0.181970
vn 0.025064 0.000023 0.999686
v 0.093769 0.092815 0.181965
vn 0.025041 0.000000 0.999686
v -0.091634 0.092808 0.186613
vn 0.025017 -0.000023 0.999687
v -0.091620 -0.092808 0.186608
vn -0.000124 -1.000000 -0.000079
v 0.092332 -0.092815 -0.004465
vn -0.000041 -1.000000 0.000000
v 0.093754 -0.092815 0.181970
vn -0.000124 -1.000000 -0.000079
v -0.091620 -0.092808 0.186608
vn -0.000205 -1.000000 -0.000158
v -0.095916 -0.092777 -0.001267
# 24 vertices, 0 vertices normals

f 1//1 2//2 3//3
f 1//1 3//3 4//4
f 5//5 6//6 7//7
f 5//5 7//7 8//8
f 9//9 10//10 11//11
f 9//9 11//11 12//12
f 13//13 14//14 15//15
f 13//13 15//15 16//16
f 17//17 18//18 19//19
f 17//17 19//19 20//20
f 21//21 22//22 23//23
f 21//21 23//23 24//24
# 12 faces, 0 coords texture

# End of File
